<svg width="20" height="23" viewBox="0 0 20 23" fill="none" xmlns="http://www.w3.org/2000/svg">
<path d="M10 11.25C9.34287 11.2443 8.70924 11.495 8.22565 11.9497C7.7417 12.4047 7.44376 13.0303 7.38932 13.7002C7.33489 14.3702 7.52773 15.0375 7.93082 15.5685C8.29023 16.0419 8.79359 16.3762 9.3587 16.519V18.3654C9.3587 18.5363 9.42441 18.7017 9.54376 18.8249C9.66338 18.9484 9.82732 19.0192 10 19.0192C10.1727 19.0192 10.3366 18.9484 10.4562 18.8249C10.5756 18.7017 10.6413 18.5363 10.6413 18.3654V16.519C11.2064 16.3762 11.7098 16.0419 12.0692 15.5685C12.4723 15.0375 12.6651 14.3702 12.6107 13.7002C12.5562 13.0303 12.2583 12.4047 11.7744 11.9497C11.2908 11.495 10.6571 11.2443 10 11.25ZM10 15.2885C9.74166 15.2885 9.48845 15.2094 9.27234 15.0604C9.05612 14.9113 8.88644 14.6985 8.78594 14.4481C8.68541 14.1977 8.659 13.9216 8.71034 13.6552C8.76168 13.3889 8.88821 13.1453 9.07277 12.9548C9.25724 12.7644 9.49131 12.6357 9.74492 12.5836C9.99846 12.5316 10.2614 12.5582 10.5007 12.6605C10.7402 12.7629 10.9461 12.9368 11.0916 13.1615C11.2371 13.3863 11.3152 13.6513 11.3152 13.9231C11.3152 14.2877 11.1748 14.6359 10.9272 14.8914C10.6799 15.1466 10.3462 15.2885 10 15.2885ZM17.8261 8.01923H14.163V5.03846C14.163 3.90359 13.7263 2.81368 12.9465 2.00887C12.1664 1.2038 11.1067 0.75 10 0.75C8.8933 0.75 7.83359 1.2038 7.05352 2.00887C6.27371 2.81368 5.83696 3.90359 5.83696 5.03846V8.01923H2.17391C1.79368 8.01923 1.43067 8.17519 1.16429 8.45012C0.898164 8.72477 0.75 9.09565 0.75 9.48077V20.7885C0.75 21.1736 0.898164 21.5445 1.16429 21.8191C1.43067 22.094 1.79368 22.25 2.17391 22.25H17.8261C18.2063 22.25 18.5693 22.094 18.8357 21.8191C19.1018 21.5445 19.25 21.1736 19.25 20.7885V9.48077C19.25 9.09565 19.1018 8.72477 18.8357 8.45012C18.5693 8.17519 18.2063 8.01923 17.8261 8.01923ZM7.11957 5.03846C7.11957 4.24541 7.42489 3.48637 7.96599 2.92793C8.50683 2.36976 9.23865 2.05769 10 2.05769C10.7613 2.05769 11.4932 2.36976 12.034 2.92793C12.5751 3.48637 12.8804 4.24541 12.8804 5.03846V8.01923H7.11957V5.03846ZM17.9674 20.7885C17.9674 20.8318 17.9506 20.8718 17.9232 20.9001C17.8961 20.9281 17.861 20.9423 17.8261 20.9423H2.17391C2.13903 20.9423 2.10391 20.9281 2.07676 20.9001C2.04935 20.8718 2.03261 20.8318 2.03261 20.7885V9.48077C2.03261 9.43747 2.04935 9.39746 2.07676 9.36917C2.10391 9.34115 2.13903 9.32692 2.17391 9.32692H17.8261C17.861 9.32692 17.8961 9.34115 17.9232 9.36917C17.9506 9.39746 17.9674 9.43747 17.9674 9.48077V20.7885Z" fill="#19191C" stroke="#19191C" stroke-width="0.5"/>
</svg>
